<?xml version="1.0" standalone="no"?>
<!DOCTYPE svg PUBLIC "-//W3C//DTD SVG 20010904//EN"
 "http://www.w3.org/TR/2001/REC-SVG-20010904/DTD/svg10.dtd">
<svg version="1.0" xmlns="http://www.w3.org/2000/svg"
 width="301.000000pt" height="300.000000pt" viewBox="0 0 301.000000 300.000000"
 preserveAspectRatio="xMidYMid meet">

<g transform="translate(0.000000,300.000000) scale(0.100000,-0.100000)"
fill="#000000" stroke="none">
<path d="M1640 2898 c-56 -10 -212 -87 -793 -390 -159 -83 -301 -161 -317
-174 -74 -63 -103 -200 -59 -286 80 -157 340 -269 587 -254 115 7 234 29 302
56 25 10 247 122 493 249 247 127 459 234 473 237 42 11 74 -4 90 -41 12 -28
14 -129 14 -582 0 -333 -4 -574 -11 -613 -15 -96 -50 -163 -121 -234 -77 -76
-104 -92 -598 -346 -332 -171 -403 -204 -447 -208 -48 -4 -55 -2 -83 26 l-30
30 0 436 0 435 34 3 34 3 -144 150 -144 150 3 -600 c3 -675 0 -650 79 -740 76
-87 187 -126 299 -105 75 14 66 10 535 251 461 237 510 266 592 342 117 110
171 208 198 362 21 118 20 1206 -1 1284 -38 142 -171 231 -318 211 -48 -7
-140 -51 -535 -253 -262 -135 -498 -252 -525 -261 -169 -57 -405 -32 -533 55
-46 32 -60 55 -43 75 9 11 526 280 1081 564 71 36 128 70 128 77 0 6 -11 25
-25 42 -40 47 -123 66 -215 49z"/>
<path d="M450 1185 l0 -565 -36 0 c-32 0 -34 -2 -22 -18 7 -11 70 -79 141
-152 l127 -133 0 651 0 650 -32 11 c-18 6 -66 35 -105 65 l-73 55 0 -564z"/>
</g>
</svg>
