<?xml version="1.0" standalone="no"?>
<!DOCTYPE svg PUBLIC "-//W3C//DTD SVG 20010904//EN"
 "http://www.w3.org/TR/2001/REC-SVG-20010904/DTD/svg10.dtd">
<svg version="1.0" xmlns="http://www.w3.org/2000/svg"
 width="45.000000pt" height="44.000000pt" viewBox="0 0 45.000000 44.000000"
 preserveAspectRatio="xMidYMid meet">

<g transform="translate(0.000000,44.000000) scale(0.100000,-0.100000)"
fill="#000000" stroke="none">
<path d="M157 383 c-82 -44 -100 -68 -67 -95 37 -30 96 -23 182 22 41 22 78
37 82 33 3 -3 6 -50 6 -103 0 -87 -2 -98 -22 -117 -31 -28 -147 -85 -158 -78
-6 4 -10 39 -10 79 0 53 -4 77 -15 86 -13 11 -15 2 -15 -69 0 -94 10 -121 46
-121 39 0 172 78 189 111 19 35 21 209 3 227 -19 19 -35 15 -120 -28 -86 -43
-113 -48 -143 -26 -18 13 -13 17 62 55 45 22 84 45 88 51 13 22 -43 8 -108
-27z"/>
<path d="M70 166 c0 -62 4 -87 15 -96 13 -11 15 -1 15 78 0 71 -3 91 -15 96
-13 4 -15 -8 -15 -78z"/>
</g>
</svg>
